<svg width="17" height="17" viewBox="0 0 17 17" fill="none" xmlns="http://www.w3.org/2000/svg">
<path d="M15.5611 1.43241C13.6426 -0.477471 10.521 -0.477471 8.60241 1.43241C7.80693 2.22433 7.31955 3.22995 7.19296 4.34058C7.08521 5.28585 7.25877 6.2492 7.68343 7.09358L0 14.7426L2.19099 16.9238L3.08348 16.0353L4.05253 17L6.13207 14.9298L5.16302 13.9651L5.87607 13.2552L6.84512 14.2199L8.92466 12.1497L7.95561 11.185L9.87443 9.27475C10.7226 9.69748 11.6903 9.87034 12.6398 9.76303C13.7555 9.637 14.7656 9.15181 15.5611 8.3599C17.4796 6.45002 17.4796 3.34233 15.5611 1.43241ZM14.8535 7.65546C13.5708 8.93236 11.5943 9.16948 10.0468 8.23207L9.7109 8.0286L6.54032 11.185L7.50937 12.1497L6.84512 12.811L5.87607 11.8463L3.74769 13.9651L4.71674 14.9298L4.05253 15.5911L3.08348 14.6263L2.19099 15.5148L1.41533 14.7426L8.93524 7.25641L8.73084 6.92202C7.78922 5.3815 8.02743 3.4138 9.31006 2.13689C10.8384 0.615456 13.3251 0.615456 14.8535 2.13689C16.3818 3.65838 16.3818 6.13399 14.8535 7.65546Z" fill="#3D3D3D"/>
<path d="M11.8733 2.79591C11.2342 3.43214 11.2342 4.46739 11.8733 5.10368C12.1929 5.42176 12.6126 5.58084 13.0324 5.58084C13.4521 5.58084 13.8719 5.42176 14.1914 5.10365C14.8305 4.46738 14.8305 3.43214 14.1914 2.79591C13.5523 2.15968 12.5124 2.15972 11.8733 2.79591ZM13.4838 4.39917C13.2349 4.64702 12.8299 4.64695 12.581 4.39917C12.3321 4.15136 12.3321 3.74816 12.581 3.50042C12.7055 3.37652 12.8689 3.31455 13.0324 3.31455C13.1959 3.31455 13.3594 3.37648 13.4838 3.50039C13.7327 3.7482 13.7327 4.15136 13.4838 4.39917Z" fill="#3D3D3D"/>
</svg>
