<svg width="15" height="17" viewBox="0 0 15 17" fill="none" xmlns="http://www.w3.org/2000/svg">
<path d="M15 7.55159C15 5.90425 13.787 4.53727 12.2144 4.31166C11.9818 1.89504 9.95623 0 7.50002 0C5.0439 0 3.01847 1.89507 2.78564 4.31163C1.213 4.53724 0 5.90421 0 7.55155C0 8.78445 0.67962 9.8601 1.68076 10.418C1.65729 10.6437 1.64527 10.8704 1.64527 11.0953C1.64527 11.5325 1.68889 11.9702 1.77495 12.3962C1.82183 12.6282 2.02411 12.7949 2.25885 12.7949H3.1519C3.17775 12.862 3.20511 12.9284 3.23398 12.9943L2.60233 13.6313C2.4363 13.7987 2.41009 14.0609 2.53971 14.2584C2.77774 14.6211 3.05376 14.9617 3.36007 15.2706C3.66671 15.5798 4.00443 15.8582 4.36388 16.098C4.55954 16.2286 4.81946 16.2022 4.98549 16.0348L5.61711 15.3977C5.6824 15.4269 5.74834 15.4545 5.81494 15.4806V16.3812C5.81494 16.6179 5.98018 16.8219 6.21018 16.8692C6.63247 16.956 7.06646 17 7.50008 17C7.93367 17 8.36766 16.956 8.78999 16.8692C9.02005 16.8219 9.18529 16.6179 9.18529 16.3812L9.18525 15.4806C9.25182 15.4545 9.31777 15.4269 9.38305 15.3978L10.0145 16.0347C10.1805 16.202 10.4404 16.2285 10.6361 16.0979C10.9955 15.8583 11.3333 15.5799 11.6401 15.2705C11.9467 14.9613 12.2226 14.6207 12.4604 14.2582C12.5899 14.0608 12.5637 13.7987 12.3977 13.6312L11.7662 12.9943C11.7951 12.9285 11.8224 12.862 11.8483 12.7948H12.7412C12.9759 12.7948 13.1782 12.6282 13.225 12.3962C13.3111 11.9701 13.3548 11.5324 13.3548 11.0952C13.3547 10.8702 13.3427 10.6436 13.3193 10.418C14.3204 9.86017 15 8.78445 15 7.55159ZM12.3671 11.0954C12.3671 11.3306 12.3521 11.5659 12.3226 11.7988H11.496C11.2777 11.7988 11.0853 11.9433 11.0228 12.1542C10.9506 12.398 10.8532 12.6346 10.7333 12.8573C10.629 13.0512 10.6635 13.2911 10.8182 13.447L11.4033 14.0372C11.261 14.2228 11.1065 14.3998 10.9415 14.5662C10.7765 14.7326 10.601 14.8884 10.417 15.0319L9.83182 14.4418C9.67725 14.2858 9.43922 14.251 9.24705 14.3562C9.02614 14.4771 8.79167 14.5753 8.55005 14.6481C8.34082 14.7111 8.19751 14.9051 8.19751 15.1253L8.19755 15.9591C7.73591 16.0187 7.26413 16.0187 6.80258 15.9591V15.1253C6.80258 14.9051 6.65924 14.7111 6.45005 14.6481C6.20853 14.5754 5.97402 14.4772 5.75298 14.3562C5.56075 14.2509 5.32288 14.2858 5.16824 14.4418L4.58298 15.032C4.39894 14.8885 4.22343 14.7327 4.05846 14.5663C3.89358 14.4 3.73908 14.223 3.59669 14.0372L4.18189 13.447C4.33652 13.2911 4.37103 13.0511 4.26673 12.8573C4.14679 12.6344 4.04944 12.3979 3.97734 12.1544C3.91488 11.9434 3.72245 11.7988 3.50414 11.7988H2.67733C2.64779 11.566 2.63288 11.3306 2.63288 11.0954C2.63288 10.9864 2.63624 10.877 2.64279 10.7675C2.83795 10.8046 3.03921 10.8242 3.24491 10.8242H5.23527C5.22487 10.9136 5.21924 11.004 5.21924 11.0954C5.21924 12.3637 6.24241 13.3956 7.50002 13.3956C8.75769 13.3956 9.78086 12.3637 9.78086 11.0954C9.78086 11.004 9.77523 10.9136 9.76482 10.8242H11.755C11.9607 10.8242 12.1619 10.8046 12.3571 10.7675C12.3636 10.8769 12.367 10.9864 12.3671 11.0954ZM8.7648 10.8242C8.7835 10.9126 8.79321 11.0031 8.79321 11.0954C8.79321 11.8145 8.21309 12.3995 7.50005 12.3995C6.78705 12.3995 6.20695 11.8145 6.20695 11.0954C6.20695 11.0031 6.21666 10.9126 6.23533 10.8242H8.7648ZM11.7551 9.82809H7.99382V7.17888L8.6474 7.838C8.74383 7.93525 8.87022 7.98389 8.99658 7.98389C9.12293 7.98389 9.24932 7.93525 9.34578 7.838C9.53864 7.64353 9.53864 7.32816 9.34578 7.13366L7.84926 5.62441C7.65643 5.42994 7.34373 5.42994 7.15087 5.62441L5.65438 7.13366C5.46152 7.32813 5.46152 7.64349 5.65438 7.838C5.84721 8.03247 6.1599 8.03247 6.35276 7.838L7.00615 7.17901V9.82809H3.24494C2.00027 9.82809 0.987676 8.80683 0.987676 7.55159C0.987676 6.29813 1.99741 5.27804 3.23958 5.27508C3.24754 5.27531 3.25686 5.27535 3.26476 5.27525C3.5345 5.27106 3.75103 5.0491 3.75103 4.77703C3.751 2.69221 5.43281 0.996094 7.50002 0.996094C9.56722 0.996094 11.249 2.69221 11.249 4.77733C11.249 4.91011 11.3016 5.03741 11.395 5.13091C11.4876 5.22348 11.6126 5.27538 11.7428 5.27538H11.7468C11.7516 5.27531 11.7564 5.27521 11.7614 5.27505C13.0031 5.27853 14.0123 6.29843 14.0123 7.55155C14.0123 8.80683 12.9997 9.82809 11.7551 9.82809Z" fill="#3D3D3D"/>
</svg>
