<svg width="15" height="15" viewBox="0 0 15 15" fill="none" xmlns="http://www.w3.org/2000/svg">
<path d="M7.51039 15H3.73961C1.67759 15 0 13.4229 0 11.4844V3.51562C0 1.57711 1.67759 0 3.73961 0H7.51039C9.57241 0 11.25 1.57711 11.25 3.51562V4.10156C11.25 4.42518 10.971 4.6875 10.6267 4.6875C10.2825 4.6875 10.0035 4.42518 10.0035 4.10156V3.51562C10.0035 2.22328 8.88507 1.17188 7.51039 1.17188H3.73961C2.36493 1.17188 1.24654 2.22328 1.24654 3.51562V11.4844C1.24654 12.7767 2.36493 13.8281 3.73961 13.8281H7.51039C8.88507 13.8281 10.0035 12.7767 10.0035 11.4844V10.8984C10.0035 10.5748 10.2825 10.3125 10.6267 10.3125C10.971 10.3125 11.25 10.5748 11.25 10.8984V11.4844C11.25 13.4229 9.57241 15 7.51039 15Z" fill="#3D3D3D"/>
<path d="M12.5989 10.3125C12.441 10.3125 12.2832 10.2539 12.163 10.1367C11.9229 9.90268 11.9234 9.52377 12.1641 9.29039L13.5891 7.90909C13.7049 7.79685 13.7687 7.64785 13.7687 7.48948C13.7687 7.33165 13.7054 7.18313 13.5904 7.07108L12.1675 5.71284C11.9249 5.48126 11.9214 5.1024 12.1596 4.8666C12.3979 4.63083 12.7877 4.62739 13.0303 4.85894L14.4552 6.21915C14.4563 6.2202 14.4574 6.22125 14.4585 6.22232C14.8077 6.56069 15 7.01073 15 7.48948C15 7.96824 14.8077 8.41824 14.4585 8.75661L13.0336 10.1378C12.9135 10.2543 12.7562 10.3125 12.5989 10.3125ZM12.5681 7.44014C12.5681 7.10964 12.2925 6.84174 11.9524 6.84174H5.30317C4.96314 6.84174 4.6875 7.10964 4.6875 7.44014C4.6875 7.77064 4.96314 8.03855 5.30317 8.03855H11.9524C12.2925 8.03855 12.5681 7.77064 12.5681 7.44014Z" fill="#3D3D3D"/>
</svg>
