<svg width="14" height="17" viewBox="0 0 14 17" fill="none" xmlns="http://www.w3.org/2000/svg">
<path d="M9.38176 6.15917C9.15878 6.15917 8.97807 6.3374 8.97807 6.5573V14.0819C8.97807 14.3016 9.15878 14.48 9.38176 14.48C9.60473 14.48 9.78545 14.3016 9.78545 14.0819V6.5573C9.78545 6.3374 9.60473 6.15917 9.38176 6.15917Z" fill="#3D3D3D"/>
<path d="M4.61825 6.15917C4.39527 6.15917 4.21456 6.3374 4.21456 6.5573V14.0819C4.21456 14.3016 4.39527 14.48 4.61825 14.48C4.84122 14.48 5.02194 14.3016 5.02194 14.0819V6.5573C5.02194 6.3374 4.84122 6.15917 4.61825 6.15917Z" fill="#3D3D3D"/>
<path d="M1.14654 5.06106V14.87C1.14654 15.4498 1.3621 15.9943 1.73866 16.3849C2.11349 16.7767 2.63513 16.9991 3.18106 17H10.8189C11.365 16.9991 11.8867 16.7767 12.2613 16.3849C12.6379 15.9943 12.8535 15.4498 12.8535 14.87V5.06106C13.602 4.86511 14.0871 4.15191 13.9869 3.39438C13.8866 2.63701 13.2324 2.07046 12.4578 2.0703H10.391V1.57265C10.3933 1.15415 10.2256 0.752291 9.92515 0.456652C9.62475 0.161169 9.21665 -0.00336908 8.79231 5.23104e-05H5.20769C4.78335 -0.00336908 4.37525 0.161169 4.07485 0.456652C3.77445 0.752291 3.60666 1.15415 3.60903 1.57265V2.0703H1.54218C0.767607 2.07046 0.113351 2.63701 0.0130595 3.39438C-0.0870738 4.15191 0.397981 4.86511 1.14654 5.06106ZM10.8189 16.2037H3.18106C2.49085 16.2037 1.95391 15.619 1.95391 14.87V5.09606H12.0461V14.87C12.0461 15.619 11.5092 16.2037 10.8189 16.2037ZM4.4164 1.57265C4.41372 1.36534 4.49635 1.16581 4.64553 1.01947C4.79454 0.873129 4.99733 0.792726 5.20769 0.796303H8.79231C9.00267 0.792726 9.20545 0.873129 9.35447 1.01947C9.50365 1.16566 9.58628 1.36534 9.5836 1.57265V2.0703H4.4164V1.57265ZM1.54218 2.86655H12.4578C12.8591 2.86655 13.1845 3.18739 13.1845 3.58318C13.1845 3.97897 12.8591 4.2998 12.4578 4.2998H1.54218C1.14086 4.2998 0.815545 3.97897 0.815545 3.58318C0.815545 3.18739 1.14086 2.86655 1.54218 2.86655Z" fill="#3D3D3D"/>
<path d="M7 6.15917C6.77703 6.15917 6.59631 6.3374 6.59631 6.5573V14.0819C6.59631 14.3016 6.77703 14.48 7 14.48C7.22298 14.48 7.40369 14.3016 7.40369 14.0819V6.5573C7.40369 6.3374 7.22298 6.15917 7 6.15917Z" fill="#3D3D3D"/>
</svg>
