<svg width="13" height="15" viewBox="0 0 13 15" fill="none" xmlns="http://www.w3.org/2000/svg">
<path d="M8.15892 2.62329H1.18575C0.531436 2.62329 0 3.15473 0 3.80904V13.8142C0 14.4685 0.531436 14.9999 1.18575 14.9999H8.15892C8.81323 14.9999 9.34467 14.4685 9.34467 13.8142V3.80904C9.34159 3.15473 8.81016 2.62329 8.15892 2.62329ZM8.51219 13.8111C8.51219 14.0077 8.35245 14.1674 8.15585 14.1674H1.18267C0.986074 14.1674 0.826336 14.0077 0.826336 13.8111V3.80904C0.826336 3.61244 0.986074 3.4527 1.18267 3.4527H8.15585C8.35245 3.4527 8.51219 3.61244 8.51219 3.80904V13.8111Z" fill="#3D3D3D"/>
<path d="M10.8253 0H3.85213C3.19782 0 2.66638 0.531436 2.66638 1.18575C2.66638 1.41614 2.85069 1.60045 3.08109 1.60045C3.31148 1.60045 3.49579 1.41614 3.49579 1.18575C3.49579 0.989146 3.65553 0.829408 3.85213 0.829408H10.8253C11.0219 0.829408 11.1816 0.989146 11.1816 1.18575V11.1909C11.1816 11.3875 11.0219 11.5472 10.8253 11.5472C10.5949 11.5472 10.4106 11.7315 10.4106 11.9619C10.4106 12.1923 10.5949 12.3766 10.8253 12.3766C11.4796 12.3766 12.011 11.8452 12.011 11.1909V1.18575C12.011 0.531436 11.4796 0 10.8253 0Z" fill="#3D3D3D"/>
</svg>
