<svg width="17" height="17" viewBox="0 0 17 17" fill="none" xmlns="http://www.w3.org/2000/svg">
<path d="M16.4708 2.06851L14.9303 0.527891C14.2265 -0.17598 13.0813 -0.175947 12.3774 0.527891C11.7147 1.19066 1.59255 11.3136 0.916105 11.9901C0.844054 12.0621 0.795776 12.1579 0.778577 12.2515L0.00833116 16.4112C-0.0215185 16.5725 0.02988 16.7381 0.145858 16.8541C0.26197 16.9702 0.427653 17.0215 0.588722 16.9917L4.74804 16.2213C4.84417 16.2034 4.93866 16.1546 5.00952 16.0838L16.4708 4.6216C17.1763 3.9161 17.1764 2.77411 16.4708 2.06851ZM1.11964 15.8802L1.58558 13.364L3.63574 15.4142L1.11964 15.8802ZM4.65737 15.0272L1.97259 12.3423L11.7745 2.53963L14.4593 5.2246L4.65737 15.0272ZM15.7665 3.91726L15.1636 4.52026L12.4788 1.83529L13.0817 1.23229C13.3972 0.916799 13.9105 0.916765 14.226 1.23229L15.7665 2.77292C16.0828 3.08918 16.0828 3.60097 15.7665 3.91726Z" fill="#3D3D3D"/>
</svg>
