<svg width="691" height="529" viewBox="0 0 691 529" fill="none" xmlns="http://www.w3.org/2000/svg">
<g clip-path="url(#clip0)">
<path d="M63.7685 528.174L63.7363 528.384C63.698 528.18 63.6612 527.97 63.6262 527.765C63.5623 527.432 63.5068 527.099 63.4545 526.764C61.3796 513.671 62.5214 500.268 66.7811 487.717C67.5999 485.267 68.5324 482.862 69.5787 480.502C73.5802 471.363 79.2528 463.055 86.3036 456.007C88.593 453.659 91.205 451.65 94.0607 450.041C94.48 449.818 94.9016 449.607 95.3325 449.413C97.9736 448.129 100.947 447.697 103.843 448.177C104.895 448.375 105.915 448.718 106.873 449.196C107.209 449.36 107.533 449.54 107.85 449.732C109.786 451.004 111.439 452.664 112.705 454.606C113.972 456.548 114.825 458.732 115.21 461.02C115.76 464.433 115.635 467.921 114.84 471.285C114.772 471.606 114.699 471.926 114.62 472.245C114.057 474.487 113.349 476.691 112.501 478.841C104.016 500.726 85.7794 520.143 63.7685 528.174Z" fill="#F2F2F2"/>
<path d="M106.817 449.267C100.195 458.804 93.9405 468.583 88.0522 478.604C82.1711 488.616 76.6745 498.843 71.5625 509.283C68.7028 515.125 65.9682 521.025 63.3585 526.985C63.0696 527.645 64.0443 528.218 64.337 527.55C68.9975 516.911 74.0551 506.46 79.5099 496.195C84.9613 485.941 90.7955 475.905 97.0126 466.085C100.491 460.591 104.085 455.174 107.795 449.832C108.21 449.234 107.23 448.671 106.817 449.267Z" fill="white"/>
<path d="M113.902 471.342C108.926 477.824 101.602 482.078 93.5177 483.184C91.2623 483.492 88.9788 483.537 86.713 483.319C85.9881 483.25 85.983 484.383 86.7017 484.451C95.1339 485.162 103.505 482.51 109.999 477.072C111.82 475.546 113.458 473.813 114.88 471.907C115.315 471.327 114.334 470.765 113.902 471.342Z" fill="white"/>
<path d="M71.4046 506.502C70.2478 504.85 69.2867 503.069 68.5406 501.195C66.8361 496.921 66.231 492.286 66.7811 487.717C67.5999 485.267 68.5324 482.862 69.5787 480.502C69.6421 480.595 69.6802 480.703 69.6894 480.815C69.6985 480.927 69.6784 481.04 69.6309 481.141C68.8941 482.912 68.3645 484.762 68.0525 486.655C66.9325 493.404 68.4873 500.324 72.3851 505.941C72.4344 506.002 72.4672 506.075 72.4804 506.153C72.4935 506.23 72.4865 506.31 72.4601 506.384C72.4165 506.482 72.3479 506.568 72.2613 506.631C72.1746 506.695 72.0728 506.735 71.9661 506.746C71.8594 506.758 71.7514 506.742 71.6529 506.699C71.5544 506.656 71.4688 506.588 71.4046 506.502Z" fill="white"/>
<path d="M94.2295 449.324C92.8676 454.764 93.2732 460.497 95.3872 465.689C95.462 465.818 95.5849 465.913 95.7291 465.953C95.8733 465.992 96.0272 465.973 96.1574 465.899C96.2847 465.823 96.3776 465.699 96.4167 465.556C96.4558 465.412 96.4383 465.259 96.3676 465.127C94.3882 460.201 94.0209 454.772 95.3188 449.622C95.3525 449.479 95.3295 449.329 95.2547 449.203C95.1799 449.076 95.0591 448.984 94.9178 448.946C94.7765 448.907 94.6257 448.925 94.4973 448.995C94.3688 449.066 94.2728 449.184 94.2295 449.324H94.2295Z" fill="white"/>
<path d="M63.6297 500.841L63.6983 501.042C63.5698 500.879 63.4404 500.711 63.314 500.545C63.1031 500.28 62.8996 500.011 62.698 499.738C54.7927 489.11 49.5926 476.709 47.5482 463.612C47.1379 461.061 46.8492 458.497 46.682 455.92C45.99 445.963 47.1632 435.965 50.141 426.441C51.08 423.295 52.4621 420.3 54.2455 417.546C54.5136 417.153 54.7891 416.77 55.0806 416.397C56.8241 414.03 59.2571 412.263 62.0444 411.34C63.0679 411.025 64.13 410.855 65.2002 410.832C65.5737 410.821 65.9436 410.829 66.3136 410.851C68.6176 411.077 70.8503 411.777 72.872 412.907C74.8937 414.037 76.6607 415.574 78.0626 417.42C80.1314 420.187 81.6365 423.334 82.492 426.683C82.5806 427 82.664 427.317 82.7423 427.636C83.2826 429.884 83.6769 432.165 83.9228 434.464C86.5504 457.795 79.3997 483.481 63.6297 500.841Z" fill="#F2F2F2"/>
<path d="M65.1826 410.92C63.7389 422.449 62.7319 434.021 62.1615 445.637C61.5936 457.242 61.4654 468.858 61.777 480.484C61.9517 486.988 62.2645 493.487 62.7155 499.979C62.7653 500.698 63.8943 500.752 63.8439 500.024C63.0407 488.433 62.6759 476.823 62.7494 465.193C62.8249 453.574 63.34 441.97 64.2947 430.379C64.8292 423.894 65.5013 417.423 66.311 410.965C66.4015 410.243 65.2728 410.201 65.1826 410.92V410.92Z" fill="white"/>
<path d="M81.6876 427.171C80.2852 435.227 75.7711 442.405 69.1241 447.148C67.2696 448.471 65.2685 449.575 63.1607 450.436C62.487 450.713 63.0073 451.718 63.6753 451.444C71.472 448.147 77.6567 441.901 80.8867 434.062C81.7925 431.862 82.44 429.565 82.816 427.216C82.9325 426.499 81.8033 426.459 81.6876 427.171V427.171Z" fill="white"/>
<path d="M60.3483 478.094C58.5584 477.17 56.8818 476.04 55.3523 474.727C51.8623 471.737 49.1787 467.914 47.5482 463.612C47.1379 461.061 46.8492 458.497 46.682 455.92C46.7811 455.972 46.8649 456.05 46.9249 456.145C46.985 456.24 47.0193 456.349 47.0244 456.461C47.1925 458.372 47.5808 460.257 48.1817 462.079C50.3177 468.577 54.9017 473.982 60.9564 477.14C61.0285 477.172 61.0913 477.221 61.1389 477.284C61.1866 477.346 61.2173 477.42 61.2283 477.498C61.2353 477.606 61.214 477.713 61.1668 477.81C61.1195 477.906 61.0477 477.989 60.9588 478.049C60.8698 478.109 60.7666 478.145 60.6595 478.153C60.5524 478.161 60.4451 478.14 60.3483 478.094Z" fill="white"/>
<path d="M54.0627 416.832C55.3775 422.283 58.3936 427.171 62.6719 430.785C62.7983 430.865 62.951 430.892 63.097 430.86C63.243 430.827 63.3704 430.739 63.4516 430.613C63.5287 430.485 63.5539 430.333 63.5219 430.188C63.4899 430.042 63.4033 429.915 63.28 429.831C59.2439 426.39 56.4025 421.753 55.1654 416.589C55.1291 416.447 55.0391 416.324 54.9143 416.247C54.7896 416.17 54.6398 416.145 54.4968 416.176C54.3537 416.208 54.2285 416.294 54.1475 416.416C54.0665 416.539 54.0361 416.688 54.0627 416.832L54.0627 416.832Z" fill="white"/>
<path d="M64.1184 528.313L64.284 528.445C64.0883 528.377 63.8889 528.306 63.6932 528.234C63.3732 528.125 63.0571 528.008 62.7408 527.887C50.3692 523.199 39.3247 515.558 30.5646 505.625C28.8483 503.697 27.2274 501.693 25.7018 499.612C19.769 491.596 15.3852 482.538 12.7769 472.906C11.8779 469.748 11.4331 466.479 11.456 463.195C11.471 462.72 11.4973 462.248 11.5425 461.777C11.7398 458.841 12.8404 456.039 14.6928 453.756C15.3863 452.939 16.1893 452.222 17.079 451.625C17.3875 451.414 17.7038 451.221 18.0275 451.04C20.0899 449.986 22.3472 449.371 24.658 449.232C26.9688 449.093 29.2833 449.434 31.4566 450.233C34.6861 451.447 37.6454 453.286 40.1658 455.646C40.4104 455.865 40.6513 456.088 40.8886 456.314C42.5517 457.917 44.1093 459.625 45.5518 461.43C60.3019 479.67 68.0779 505.172 64.1184 528.313Z" fill="#F2F2F2"/>
<path d="M17.1117 451.709C22.0898 462.202 27.4591 472.496 33.2197 482.592C38.9767 492.676 45.1098 502.533 51.6191 512.16C55.2611 517.546 59.0164 522.853 62.885 528.08C63.3131 528.659 64.2935 528.095 63.86 527.509C56.9551 518.176 50.4093 508.59 44.2227 498.752C38.0434 488.921 32.2421 478.865 26.8188 468.584C23.7849 462.831 20.8742 457.016 18.0867 451.138C17.7748 450.48 16.801 451.054 17.1117 451.709Z" fill="white"/>
<path d="M39.75 456.492C42.8972 464.037 42.9504 472.522 39.8981 480.106C39.0465 482.222 37.9532 484.232 36.6401 486.096C36.2211 486.693 37.1996 487.259 37.6151 486.667C42.4132 479.681 44.2683 471.079 42.7776 462.73C42.3592 460.388 41.6704 458.103 40.725 455.92C40.4379 455.253 39.4648 455.829 39.75 456.492Z" fill="white"/>
<path d="M49.1312 510.918C47.1265 511.106 45.1068 511.059 43.1129 510.779C38.5652 510.142 34.2501 508.37 30.5645 505.625C28.8483 503.697 27.2273 501.693 25.7018 499.612C25.8136 499.603 25.9259 499.623 26.0276 499.671C26.1292 499.718 26.2167 499.792 26.2814 499.883C27.4498 501.403 28.7898 502.781 30.2747 503.992C35.566 508.314 42.3323 510.393 49.1312 509.786C49.2088 509.774 49.2882 509.781 49.362 509.809C49.4358 509.836 49.5014 509.881 49.5526 509.941C49.6161 510.028 49.656 510.13 49.6681 510.237C49.6801 510.344 49.6641 510.452 49.6215 510.551C49.5789 510.649 49.5112 510.735 49.4252 510.8C49.3391 510.864 49.2378 510.905 49.1312 510.918Z" fill="white"/>
<path d="M10.9186 462.693C14.9552 466.576 20.1229 469.067 25.6695 469.802C25.9743 469.843 26.2312 469.513 26.234 469.236C26.2305 469.087 26.1699 468.945 26.0648 468.84C25.9597 468.734 25.8181 468.674 25.6695 468.67C20.4198 467.949 15.5341 465.576 11.717 461.893C11.1937 461.387 10.3942 462.186 10.9185 462.693H10.9186Z" fill="white"/>
<path d="M141.187 379.045C142.29 378.287 143.214 377.296 143.893 376.142C144.572 374.988 144.991 373.699 145.119 372.365C145.247 371.031 145.083 369.685 144.636 368.422C144.189 367.159 143.472 366.01 142.534 365.055L146.081 285.689L128.022 287.721L129.071 365.352C127.575 367.037 126.747 369.214 126.746 371.47C126.744 373.726 127.568 375.905 129.061 377.592C130.555 379.28 132.614 380.36 134.849 380.628C137.084 380.896 139.339 380.332 141.187 379.045Z" fill="#FFB8B8"/>
<path d="M174.132 513.393L184.411 515.203L194.57 476.328L181.102 473.655L174.132 513.393Z" fill="#FFB8B8"/>
<path d="M202.555 528.263L170.252 522.571L172.446 510.061L192.269 513.554C193.908 513.843 195.474 514.452 196.878 515.348C198.282 516.243 199.496 517.407 200.451 518.773C201.407 520.139 202.084 521.68 202.445 523.308C202.806 524.937 202.844 526.62 202.555 528.263Z" fill="#2F2E41"/>
<path d="M145.921 518.55L156.357 518.549L161.321 478.202L145.919 478.202L145.921 518.55Z" fill="#FFB8B8"/>
<path d="M176.483 528.261L143.685 528.263L143.684 515.561L163.811 515.56C167.172 515.56 170.395 516.898 172.771 519.28C175.148 521.662 176.483 524.893 176.483 528.261L176.483 528.261Z" fill="#2F2E41"/>
<path d="M190.315 507.501C190.152 507.501 189.989 507.491 189.827 507.472L177.544 506.459C176.985 506.393 176.445 506.214 175.957 505.932C175.469 505.65 175.043 505.272 174.705 504.821C174.367 504.369 174.125 503.853 173.992 503.305C173.859 502.756 173.839 502.187 173.933 501.63L185.275 437.91L177.611 397.404C177.549 397.075 177.369 396.78 177.107 396.573C176.844 396.366 176.516 396.261 176.182 396.277C175.848 396.294 175.531 396.431 175.291 396.663C175.05 396.895 174.901 397.207 174.871 397.541L165.29 505.583C165.184 506.667 164.663 507.668 163.836 508.374C163.008 509.08 161.94 509.437 160.855 509.369L149.283 508.937C148.268 508.865 147.316 508.423 146.604 507.695C145.893 506.967 145.472 506.003 145.421 504.985L144.643 375.493L204.639 367.977L208.83 432.856L208.814 432.925L194.351 504.319C194.13 505.225 193.613 506.032 192.881 506.609C192.149 507.186 191.246 507.5 190.315 507.501Z" fill="#2F2E41"/>
<path d="M164.424 234.26C175.971 234.26 185.331 224.877 185.331 213.304C185.331 201.73 175.971 192.348 164.424 192.348C152.877 192.348 143.516 201.73 143.516 213.304C143.516 224.877 152.877 234.26 164.424 234.26Z" fill="#FFB8B8"/>
<path d="M184.124 384.958C180.854 384.977 177.647 384.058 174.882 382.308C164.754 375.963 153.251 378.485 147.296 380.553C146.705 380.76 146.075 380.831 145.453 380.76C144.83 380.689 144.232 380.478 143.703 380.142C143.18 379.813 142.738 379.369 142.41 378.845C142.082 378.32 141.877 377.727 141.81 377.112L130.98 280.164C129.165 263.92 138.927 248.648 154.191 243.851C154.764 243.67 155.348 243.499 155.94 243.338C160.691 242.047 165.665 241.815 170.514 242.659C175.363 243.502 179.969 245.401 184.007 248.22C188.121 251.071 191.561 254.791 194.086 259.118C196.61 263.445 198.158 268.274 198.62 273.265L207.738 370.863C207.8 371.495 207.715 372.133 207.489 372.726C207.263 373.319 206.904 373.852 206.438 374.282C203.242 377.246 193.966 384.957 184.124 384.958Z" fill="#6C63FF"/>
<path d="M151.146 300.954L126.712 298.261C126.017 298.184 125.347 297.958 124.746 297.598C124.146 297.239 123.63 296.753 123.234 296.176C122.838 295.598 122.57 294.942 122.45 294.251C122.33 293.561 122.359 292.852 122.537 292.174L128.756 268.415C129.167 264.852 130.971 261.598 133.772 259.366C136.574 257.134 140.143 256.107 143.699 256.51C147.255 256.912 150.506 258.711 152.741 261.513C154.975 264.315 156.009 267.89 155.618 271.455L156.541 295.922C156.567 296.622 156.442 297.32 156.175 297.968C155.908 298.616 155.505 299.198 154.993 299.676C154.481 300.153 153.872 300.515 153.208 300.735C152.544 300.956 151.841 301.03 151.146 300.954V300.954Z" fill="#6C63FF"/>
<path d="M207.64 375.646C208.643 374.761 209.441 373.666 209.977 372.438C210.512 371.21 210.773 369.88 210.74 368.54C210.707 367.201 210.381 365.884 209.786 364.685C209.191 363.485 208.34 362.43 207.295 361.596L201.274 282.38L183.578 286.373L193.965 363.517C192.683 365.371 192.123 367.632 192.393 369.871C192.662 372.111 193.742 374.174 195.428 375.669C197.113 377.164 199.287 377.988 201.538 377.984C203.789 377.979 205.96 377.148 207.64 375.646V375.646Z" fill="#FFB8B8"/>
<path d="M176.793 295.974C176.281 295.497 175.878 294.914 175.611 294.266C175.344 293.618 175.219 292.92 175.246 292.22L176.169 267.753C175.777 264.188 176.812 260.613 179.046 257.811C181.28 255.01 184.532 253.21 188.087 252.808C191.643 252.405 195.213 253.433 198.014 255.664C200.815 257.896 202.619 261.15 203.031 264.713L209.25 288.472C209.427 289.15 209.457 289.859 209.337 290.549C209.216 291.24 208.949 291.896 208.553 292.474C208.156 293.052 207.64 293.537 207.04 293.897C206.44 294.256 205.769 294.482 205.074 294.559L180.641 297.252C179.946 297.329 179.242 297.254 178.578 297.034C177.914 296.813 177.305 296.452 176.793 295.974Z" fill="#6C63FF"/>
<path d="M163.18 235.049C162.809 235.049 162.438 235.006 162.076 234.92L161.97 234.894C143.588 232.076 139.526 221.404 138.634 216.947C137.711 212.332 138.762 207.878 141.137 206.148C139.842 202.051 140.05 198.417 141.756 195.345C144.732 189.986 151.189 188.174 152.055 187.953C157.212 184.139 163.382 186.685 164.504 187.201C174.479 183.502 178.292 186.581 178.982 187.269C183.441 188.071 186.159 189.798 187.061 192.401C188.756 197.291 183.396 203.374 183.167 203.63L183.048 203.763L175.063 204.144C174.306 204.181 173.564 204.376 172.887 204.718C172.209 205.06 171.611 205.541 171.131 206.13C170.651 206.718 170.3 207.402 170.1 208.135C169.9 208.869 169.857 209.636 169.972 210.387C170.188 211.357 170.461 212.313 170.79 213.25C172.153 217.522 173.175 221.171 171.857 222.558C171.559 222.827 171.191 223.006 170.795 223.074C170.4 223.143 169.994 223.099 169.622 222.947C168.374 222.613 167.526 222.683 167.104 223.155C166.448 223.889 166.649 225.745 167.668 228.382C167.987 229.216 168.074 230.121 167.917 231.001C167.76 231.88 167.366 232.7 166.777 233.371C166.334 233.894 165.783 234.316 165.162 234.606C164.541 234.895 163.865 235.047 163.18 235.049Z" fill="#2F2E41"/>
<path d="M410.092 302.042H307.092C303.255 302.038 299.577 300.508 296.864 297.789C294.151 295.07 292.625 291.383 292.621 287.537V132.394C292.625 128.548 294.151 124.861 296.864 122.142C299.577 119.423 303.255 117.893 307.092 117.889H410.092C413.928 117.893 417.607 119.423 420.32 122.142C423.032 124.861 424.558 128.548 424.563 132.394V287.537C424.558 291.383 423.032 295.07 420.32 297.789C417.607 300.508 413.928 302.038 410.092 302.042ZM307.092 119.595C303.707 119.599 300.461 120.949 298.068 123.348C295.674 125.747 294.327 129.001 294.324 132.394V287.537C294.327 290.93 295.674 294.183 298.068 296.583C300.461 298.982 303.707 300.332 307.092 300.335H410.092C413.477 300.332 416.723 298.982 419.116 296.583C421.51 294.183 422.857 290.93 422.86 287.537V132.394C422.857 129.001 421.51 125.747 419.116 123.348C416.723 120.949 413.477 119.599 410.092 119.595H307.092Z" fill="#3F3D56"/>
<path d="M394.344 192.474H322.84C320.922 192.472 319.083 191.708 317.726 190.348C316.37 188.988 315.607 187.145 315.604 185.222V151.093C315.607 149.17 316.37 147.327 317.726 145.967C319.083 144.608 320.922 143.843 322.84 143.841H394.344C396.262 143.843 398.101 144.608 399.458 145.967C400.814 147.327 401.577 149.17 401.579 151.093V185.222C401.577 187.145 400.814 188.988 399.458 190.348C398.101 191.707 396.262 192.472 394.344 192.474Z" fill="#6C63FF"/>
<path d="M389.237 224.47H327.948C326.141 224.47 324.409 223.751 323.132 222.471C321.855 221.191 321.138 219.455 321.138 217.645C321.138 215.834 321.855 214.098 323.132 212.818C324.409 211.538 326.141 210.819 327.948 210.819H389.237C391.043 210.819 392.775 211.538 394.052 212.818C395.329 214.098 396.047 215.834 396.047 217.645C396.047 219.455 395.329 221.191 394.052 222.471C392.775 223.751 391.043 224.47 389.237 224.47Z" fill="#CCCCCC"/>
<path d="M389.237 250.067H327.948C326.141 250.067 324.409 249.348 323.132 248.068C321.855 246.788 321.138 245.052 321.138 243.241C321.138 241.431 321.855 239.695 323.132 238.415C324.409 237.135 326.141 236.416 327.948 236.416H389.237C391.043 236.416 392.775 237.135 394.052 238.415C395.329 239.695 396.047 241.431 396.047 243.241C396.047 245.052 395.329 246.788 394.052 248.068C392.775 249.348 391.043 250.067 389.237 250.067Z" fill="#CCCCCC"/>
<path d="M389.237 275.664H327.948C326.141 275.664 324.409 274.945 323.132 273.665C321.855 272.385 321.138 270.648 321.138 268.838C321.138 267.028 321.855 265.292 323.132 264.011C324.409 262.731 326.141 262.012 327.948 262.012H389.237C391.043 262.012 392.775 262.731 394.052 264.011C395.329 265.292 396.047 267.028 396.047 268.838C396.047 270.648 395.329 272.385 394.052 273.665C392.775 274.945 391.043 275.664 389.237 275.664Z" fill="#CCCCCC"/>
<path d="M661.207 389.071H558.207C554.37 389.067 550.692 387.537 547.979 384.818C545.266 382.099 543.74 378.412 543.736 374.566V219.423C543.74 215.577 545.266 211.89 547.979 209.171C550.692 206.452 554.37 204.922 558.207 204.918H661.207C665.043 204.922 668.722 206.452 671.435 209.171C674.148 211.89 675.674 215.577 675.678 219.423V374.566C675.674 378.412 674.148 382.099 671.435 384.818C668.722 387.537 665.043 389.067 661.207 389.071ZM558.207 206.624C554.822 206.628 551.576 207.978 549.183 210.377C546.789 212.777 545.442 216.03 545.439 219.423V374.566C545.442 377.959 546.789 381.212 549.183 383.612C551.576 386.011 554.822 387.361 558.207 387.365H661.207C664.592 387.361 667.838 386.011 670.231 383.612C672.625 381.212 673.972 377.959 673.975 374.566V219.423C673.972 216.03 672.625 212.777 670.231 210.377C667.838 207.978 664.592 206.628 661.207 206.624H558.207Z" fill="#3F3D56"/>
<path d="M640.351 243.241H579.062C577.256 243.241 575.524 242.522 574.247 241.242C572.97 239.962 572.252 238.226 572.252 236.416C572.252 234.605 572.97 232.869 574.247 231.589C575.524 230.309 577.256 229.59 579.062 229.59H640.351C642.158 229.59 643.89 230.309 645.167 231.589C646.444 232.869 647.161 234.605 647.161 236.416C647.161 238.226 646.444 239.962 645.167 241.242C643.89 242.522 642.158 243.241 640.351 243.241Z" fill="#CCCCCC"/>
<path d="M640.351 268.838H579.062C577.256 268.838 575.524 268.119 574.247 266.839C572.97 265.559 572.252 263.823 572.252 262.012C572.252 260.202 572.97 258.466 574.247 257.186C575.524 255.906 577.256 255.186 579.062 255.186H640.351C642.158 255.186 643.89 255.906 645.167 257.186C646.444 258.466 647.161 260.202 647.161 262.012C647.161 263.823 646.444 265.559 645.167 266.839C643.89 268.119 642.158 268.838 640.351 268.838Z" fill="#CCCCCC"/>
<path d="M645.459 334.11H573.955C572.037 334.107 570.198 333.342 568.841 331.983C567.485 330.623 566.722 328.78 566.72 326.857V292.728C566.722 290.805 567.485 288.962 568.841 287.602C570.198 286.243 572.037 285.478 573.955 285.476H645.459C647.377 285.478 649.216 286.243 650.573 287.602C651.929 288.962 652.692 290.805 652.694 292.728V326.857C652.692 328.78 651.929 330.623 650.573 331.983C649.216 333.342 647.377 334.107 645.459 334.11Z" fill="#E6E6E6"/>
<path d="M640.351 364.399H579.062C577.256 364.399 575.524 363.68 574.247 362.4C572.97 361.12 572.252 359.384 572.252 357.574C572.252 355.763 572.97 354.027 574.247 352.747C575.524 351.467 577.256 350.748 579.062 350.748H640.351C642.158 350.748 643.89 351.467 645.167 352.747C646.444 354.027 647.161 355.763 647.161 357.574C647.161 359.384 646.444 361.12 645.167 362.4C643.89 363.68 642.158 364.399 640.351 364.399Z" fill="#CCCCCC"/>
<path d="M598.215 142.489H495.216C491.379 142.484 487.701 140.955 484.988 138.236C482.275 135.516 480.749 131.829 480.745 127.984V31.7131C480.749 27.8675 482.275 24.1806 484.988 21.4614C487.701 18.7422 491.379 17.2126 495.216 17.2083H598.215C602.052 17.2126 605.73 18.7422 608.443 21.4614C611.156 24.1806 612.682 27.8675 612.686 31.7131V127.984C612.682 131.829 611.156 135.516 608.443 138.236C605.73 140.955 602.052 142.484 598.215 142.489ZM495.216 18.9147C491.83 18.9185 488.585 20.2682 486.191 22.6675C483.797 25.0668 482.451 28.3199 482.447 31.7131V127.984C482.451 131.377 483.797 134.63 486.191 137.029C488.585 139.429 491.83 140.778 495.216 140.782H598.215C601.601 140.778 604.846 139.429 607.24 137.029C609.633 134.63 610.98 131.377 610.984 127.984V31.7131C610.98 28.3199 609.633 25.0668 607.24 22.6675C604.846 20.2682 601.601 18.9185 598.215 18.9147H495.216Z" fill="#3F3D56"/>
<path d="M577.36 112.271H516.071C514.265 112.271 512.533 111.552 511.255 110.272C509.978 108.992 509.261 107.256 509.261 105.445C509.261 103.635 509.978 101.899 511.255 100.619C512.533 99.3387 514.265 98.6195 516.071 98.6195H577.36C579.166 98.6195 580.898 99.3387 582.175 100.619C583.452 101.899 584.17 103.635 584.17 105.445C584.17 107.256 583.452 108.992 582.175 110.272C580.898 111.552 579.166 112.271 577.36 112.271Z" fill="#CCCCCC"/>
<path d="M577.36 86.6744H516.071C514.265 86.6744 512.533 85.9552 511.255 84.6751C509.978 83.3951 509.261 81.6589 509.261 79.8486C509.261 78.0382 509.978 76.3021 511.255 75.022C512.533 73.7419 514.265 73.0228 516.071 73.0228H577.36C579.166 73.0228 580.898 73.7419 582.175 75.022C583.452 76.3021 584.17 78.0382 584.17 79.8486C584.17 81.6589 583.452 83.3951 582.175 84.6751C580.898 85.9552 579.166 86.6744 577.36 86.6744Z" fill="#CCCCCC"/>
<path d="M577.36 61.0776H516.071C514.265 61.0776 512.533 60.3585 511.255 59.0784C509.978 57.7983 509.261 56.0621 509.261 54.2518C509.261 52.4415 509.978 50.7053 511.255 49.4252C512.533 48.1451 514.265 47.426 516.071 47.426H577.36C579.166 47.426 580.898 48.1451 582.175 49.4252C583.452 50.7053 584.17 52.4415 584.17 54.2518C584.17 56.0621 583.452 57.7983 582.175 59.0784C580.898 60.3585 579.166 61.0776 577.36 61.0776Z" fill="#CCCCCC"/>
<path d="M416.05 141.635C426.863 141.635 435.629 132.849 435.629 122.011C435.629 111.173 426.863 102.387 416.05 102.387C405.238 102.387 396.472 111.173 396.472 122.011C396.472 132.849 405.238 141.635 416.05 141.635Z" fill="#6C63FF"/>
<path d="M414.11 129.497C413.669 129.498 413.24 129.356 412.888 129.091L412.866 129.074L408.265 125.543C408.051 125.38 407.871 125.176 407.736 124.943C407.6 124.71 407.512 124.452 407.477 124.185C407.441 123.918 407.458 123.646 407.527 123.385C407.596 123.125 407.716 122.88 407.88 122.666C408.044 122.452 408.248 122.273 408.481 122.138C408.714 122.003 408.971 121.916 409.238 121.881C409.505 121.846 409.776 121.864 410.036 121.934C410.295 122.005 410.539 122.126 410.752 122.291L413.732 124.581L420.775 115.375C420.938 115.161 421.142 114.982 421.374 114.847C421.606 114.713 421.863 114.625 422.129 114.59C422.395 114.555 422.666 114.573 422.925 114.642C423.184 114.712 423.428 114.832 423.641 114.996L423.597 115.055L423.642 114.996C424.071 115.328 424.353 115.816 424.423 116.354C424.494 116.893 424.349 117.438 424.02 117.869L415.736 128.698C415.545 128.947 415.298 129.149 415.016 129.288C414.734 129.427 414.424 129.498 414.11 129.497Z" fill="white"/>
<path d="M671.422 229.518C682.235 229.518 691 220.732 691 209.894C691 199.055 682.235 190.269 671.422 190.269C660.609 190.269 651.843 199.055 651.843 209.894C651.843 220.732 660.609 229.518 671.422 229.518Z" fill="#3F3D56"/>
<path d="M669.481 217.38C669.04 217.381 668.612 217.238 668.259 216.973L668.237 216.957L663.636 213.426C663.422 213.262 663.242 213.058 663.107 212.825C662.972 212.592 662.884 212.335 662.848 212.067C662.812 211.8 662.829 211.528 662.898 211.268C662.968 211.007 663.087 210.763 663.251 210.549C663.415 210.335 663.619 210.155 663.852 210.02C664.085 209.885 664.342 209.798 664.609 209.763C664.876 209.728 665.147 209.746 665.407 209.817C665.666 209.887 665.91 210.008 666.123 210.173L669.103 212.463L676.146 203.257C676.309 203.044 676.513 202.864 676.745 202.73C676.978 202.595 677.234 202.508 677.5 202.472C677.766 202.437 678.037 202.455 678.296 202.524C678.556 202.594 678.799 202.714 679.012 202.878L678.968 202.937L679.013 202.879C679.443 203.21 679.724 203.698 679.795 204.237C679.866 204.775 679.72 205.32 679.391 205.751L671.107 216.58C670.916 216.83 670.669 217.032 670.387 217.17C670.105 217.309 669.795 217.381 669.481 217.38Z" fill="white"/>
<path d="M609.281 39.2484C620.094 39.2484 628.86 30.4623 628.86 19.6242C628.86 8.78605 620.094 0 609.281 0C598.468 0 589.703 8.78605 589.703 19.6242C589.703 30.4623 598.468 39.2484 609.281 39.2484Z" fill="#3F3D56"/>
<path d="M607.341 27.1104C606.9 27.1112 606.471 26.9684 606.119 26.7036L606.097 26.6872L601.496 23.1562C601.282 22.9929 601.102 22.7889 600.967 22.5558C600.831 22.3227 600.743 22.0651 600.707 21.7979C600.672 21.5306 600.689 21.2588 600.758 20.9982C600.827 20.7376 600.947 20.4933 601.111 20.2792C601.275 20.0652 601.479 19.8856 601.712 19.7508C601.945 19.616 602.202 19.5286 602.469 19.4937C602.736 19.4588 603.007 19.477 603.266 19.5473C603.526 19.6176 603.77 19.7386 603.983 19.9034L606.963 22.1939L614.005 12.9877C614.169 12.7742 614.372 12.595 614.605 12.4604C614.837 12.3257 615.094 12.2383 615.36 12.2031C615.626 12.1679 615.897 12.1856 616.156 12.2551C616.415 12.3247 616.658 12.4448 616.871 12.6085L616.828 12.6681L616.873 12.6093C617.302 12.9404 617.583 13.4287 617.654 13.9673C617.725 14.5058 617.58 15.0506 617.251 15.482L608.967 26.3107C608.775 26.5603 608.529 26.7622 608.247 26.9009C607.965 27.0396 607.655 27.1113 607.341 27.1104Z" fill="white"/>
<path d="M325.173 529H0.851245C0.625483 529 0.408966 528.91 0.249329 528.75C0.0896906 528.59 7.62939e-06 528.373 7.62939e-06 528.147C7.62939e-06 527.921 0.0896906 527.703 0.249329 527.543C0.408966 527.383 0.625483 527.294 0.851245 527.294H325.173C325.398 527.294 325.615 527.383 325.774 527.543C325.934 527.703 326.024 527.921 326.024 528.147C326.024 528.373 325.934 528.59 325.774 528.75C325.615 528.91 325.398 529 325.173 529Z" fill="#3F3D56"/>
</g>
<defs>
<clipPath id="clip0">
<rect width="691" height="529" fill="white"/>
</clipPath>
</defs>
</svg>
