<svg width="691" height="489" viewBox="0 0 691 489" fill="none" xmlns="http://www.w3.org/2000/svg">
<g clip-path="url(#clip0)">
<path d="M3.28799 159.628C12.8199 192.709 40.652 215.867 69.6843 235.539C73.738 238.286 77.793 240.97 81.8493 243.591C81.8768 243.603 81.9051 243.629 81.9329 243.641C82.128 243.766 82.3236 243.892 82.5054 244.018C83.3426 244.558 84.18 245.098 85.0102 245.632L84.5542 245.837C84.5542 245.837 84.1064 246.075 84.5963 245.875C84.7421 245.814 84.8949 245.759 85.0404 245.698C101.906 238.893 119.072 231.586 131.997 218.838C145.405 205.599 153.241 184.836 145.98 167.444C145.026 165.166 143.821 163.002 142.387 160.991C141.798 160.148 141.163 159.341 140.503 158.549C136.498 153.659 131.264 149.925 125.338 147.73C119.412 145.534 113.009 144.958 106.786 146.059C100.564 147.161 94.7473 149.9 89.934 153.996C85.1208 158.092 81.485 163.397 79.4003 169.364C77.2673 149.497 93.6428 132.854 109.402 120.575C125.168 108.302 143.082 94.9361 146.13 75.1788C147.832 64.186 144.011 53.533 137.051 44.9812C136.835 44.7213 136.62 44.4618 136.398 44.2091C127.925 34.2487 116.008 27.8527 103.027 26.2987C78.8523 23.7851 55.37 36.5868 37.8074 53.4024C9.54062 80.4576 -7.54796 122.014 3.28799 159.628Z" fill="#F2F2F2"/>
<path d="M48.7282 116.358C44.0885 123.579 40.5264 131.439 38.1542 139.689C36.1481 147.063 35.2552 154.695 35.5052 162.333C35.9396 178.033 40.7682 193.374 48.3655 207.039C54.2431 217.399 61.4062 226.975 69.6843 235.539C73.738 238.286 77.793 240.97 81.8493 243.591C81.8767 243.603 81.905 243.629 81.9328 243.641C82.128 243.766 82.3235 243.892 82.5054 244.018C83.3425 244.558 84.18 245.098 85.0102 245.632C85.0102 245.632 84.1063 246.075 84.5963 245.875C84.7421 245.814 84.8949 245.759 85.0404 245.698C83.5288 233.299 85.0096 220.719 89.3589 209.011C93.7081 197.303 100.799 186.808 110.038 178.406C119.298 170.132 130.382 164.165 142.386 160.991C141.798 160.148 141.163 159.341 140.503 158.549C135.867 159.85 131.355 161.558 127.019 163.654C111.521 171.099 98.8318 183.339 90.8285 198.561C83.6465 212.383 80.5555 227.968 81.9184 243.486C81.2254 242.858 80.5316 242.216 79.8587 241.58C67.0424 229.626 55.659 215.905 47.955 200.07C41.2714 186.66 37.9865 171.811 38.3896 156.832C39.0184 140.498 45.5234 125.37 54.9417 112.199C65.0308 98.1034 77.6795 85.6325 91.1866 74.829C105.021 63.7436 120.16 54.3934 136.265 46.987C136.628 46.8174 136.912 46.5146 137.058 46.1413C137.205 45.7679 137.202 45.3526 137.051 44.9812C136.943 44.6479 136.709 44.3705 136.398 44.2092C136.238 44.1402 136.065 44.1082 135.891 44.1156C135.717 44.123 135.547 44.1696 135.393 44.2519C133.405 45.1677 131.43 46.096 129.472 47.0644C113.157 55.1318 97.907 65.1955 84.0725 77.0244C70.7093 88.4222 58.1285 101.444 48.7282 116.358Z" fill="white"/>
<path d="M158.847 349.048C139.322 349.048 123.493 333.212 123.493 313.679C123.493 294.145 139.322 278.309 158.847 278.309C178.373 278.309 194.201 294.145 194.201 313.679C194.201 333.212 178.373 349.048 158.847 349.048Z" fill="#2F2E41"/>
<path d="M186.442 294.609C180.729 288.893 179.571 280.784 183.856 276.498C188.141 272.211 196.246 273.369 201.959 279.085C207.673 284.801 208.831 292.909 204.546 297.196C200.261 301.483 192.155 300.324 186.442 294.609Z" fill="#2F2E41"/>
<path d="M121.999 283.377C119.618 277.802 123.712 270.708 131.142 267.533C138.572 264.358 146.525 266.303 148.905 271.878C151.286 277.453 147.192 284.546 139.762 287.722C132.332 290.897 124.379 288.951 121.999 283.377Z" fill="#2F2E41"/>
<path d="M83.9752 465.541C90.05 469.764 96.4695 473.466 103.166 476.611L104.155 474.861L113.631 458.222L114.46 456.762L119.308 448.253L119.318 448.243L134.621 421.344L142.486 407.535L119.128 391.146L110.042 410.365L105.115 420.804L84.8347 463.712L83.9752 465.541Z" fill="#A0616A"/>
<path d="M104.845 400.645L107.774 396.056L120.727 375.727C122.496 371.777 125.757 368.69 129.797 367.141C133.836 365.593 138.325 365.709 142.279 367.464C146.233 369.22 149.33 372.472 150.892 376.508C152.454 380.544 152.354 385.034 150.613 388.996L142.606 417.534C142.381 418.342 141.985 419.092 141.445 419.733C140.906 420.375 140.235 420.894 139.479 421.255C138.722 421.616 137.897 421.81 137.059 421.826C136.221 421.841 135.39 421.677 134.62 421.344C134.59 421.334 134.57 421.324 134.54 421.314L110.042 410.365L107.404 409.185C106.633 408.838 105.946 408.329 105.39 407.693C104.833 407.057 104.419 406.309 104.176 405.499C103.934 404.69 103.868 403.837 103.983 403C104.099 402.162 104.392 401.359 104.845 400.645H104.845Z" fill="#6C63FF"/>
<path d="M175.231 401.285L182.047 416.684L183.526 420.034L208.764 477.071L209.574 478.901C216.408 476.05 222.989 472.624 229.245 468.661L228.565 466.741L207.965 408.595L202.907 394.316L191.833 397.106L175.231 401.285Z" fill="#A0616A"/>
<path d="M131.398 336.52C123.45 321.974 128.793 303.735 143.334 295.783C157.874 287.831 176.105 293.177 184.054 307.724C192.002 322.271 186.658 340.509 172.118 348.461C157.577 356.413 139.347 351.067 131.398 336.52Z" fill="#A0616A"/>
<path d="M105.425 407.735C105.858 403.78 106.645 399.871 107.774 396.056C111.176 384.568 117.682 374.243 126.574 366.218C129.841 363.284 134.078 361.663 138.469 361.668H180.738C183.776 361.66 186.765 362.431 189.42 363.908C192.076 365.384 194.308 367.517 195.905 370.103C197.502 372.688 198.41 375.64 198.542 378.676C198.674 381.712 198.026 384.732 196.66 387.446L191.832 397.106L182.047 416.684L179.699 421.374L169.234 442.323L168.404 443.983L115.28 458.602L115.05 458.092C114.85 457.642 114.65 457.202 114.46 456.762C114.171 456.092 113.881 455.442 113.611 454.782C108.253 442.073 105.724 430.764 105.115 420.804C104.841 416.447 104.945 412.074 105.425 407.735Z" fill="#6C63FF"/>
<path d="M173.072 367.148C176.982 365.315 181.458 365.107 185.521 366.568C189.584 368.03 192.903 371.043 194.751 374.947L198.519 380.637L211.113 399.655C211.58 400.361 211.89 401.159 212.022 401.996C212.153 402.832 212.103 403.687 211.874 404.502C211.645 405.317 211.244 406.073 210.697 406.719C210.15 407.365 209.47 407.885 208.704 408.245L207.965 408.595L183.526 420.034L181.787 420.844C181.132 421.153 180.422 421.333 179.699 421.374C178.733 421.451 177.763 421.282 176.88 420.884C176.109 420.539 175.421 420.032 174.864 419.397C174.307 418.762 173.893 418.014 173.651 417.204L165.195 388.896C163.361 384.967 163.16 380.469 164.637 376.392C166.113 372.314 169.147 368.99 173.072 367.148Z" fill="#6C63FF"/>
<path d="M113.611 454.782C113.789 454.16 114.077 453.574 114.46 453.052C115.827 451.219 117.461 449.601 119.308 448.253L119.318 448.243C125.744 443.373 138.539 437.683 163.216 437.533H163.257C164.388 437.532 165.495 437.857 166.447 438.469C167.399 439.08 168.155 439.953 168.624 440.983L169.234 442.323L173.162 450.962C173.495 451.706 174.023 452.345 174.691 452.812C178.239 455.322 189.534 464.422 195.371 481.8C195.581 482.42 195.781 483.05 195.971 483.7C171.013 490.994 144.459 490.754 119.638 483.01L119.088 480.741L113.631 458.222L113.54 457.852C113.293 456.84 113.317 455.781 113.611 454.782Z" fill="#2F2E41"/>
<path d="M189.254 303.241C182.397 307.969 174.259 310.485 165.932 310.452C168.902 312.512 172.284 313.904 175.844 314.531C164.772 316.907 153.329 316.972 142.232 314.72C139.765 314.325 137.385 313.507 135.195 312.302C134.104 311.693 133.154 310.861 132.406 309.859C131.657 308.858 131.128 307.711 130.852 306.491C130.115 302.277 133.397 298.448 136.809 295.867C142.032 291.976 148.054 289.296 154.44 288.019C160.826 286.743 167.416 286.902 173.732 288.486C177.857 289.552 181.989 291.354 184.668 294.668C187.347 297.982 188.14 303.091 185.588 306.503L189.254 303.241Z" fill="#2F2E41"/>
<path d="M147.861 30.4775H689.914V32.6511H147.861V30.4775Z" fill="#3F3D56"/>
<path d="M265.256 156.613H572.905C573.821 156.613 574.727 156.433 575.573 156.082C576.419 155.732 577.188 155.218 577.835 154.57C578.483 153.922 578.996 153.153 579.347 152.307C579.697 151.461 579.877 150.554 579.877 149.638C579.877 148.722 579.697 147.815 579.347 146.968C578.996 146.122 578.483 145.353 577.835 144.705C577.188 144.057 576.419 143.544 575.573 143.193C574.727 142.842 573.821 142.662 572.905 142.662H265.256C264.34 142.662 263.434 142.842 262.588 143.193C261.742 143.544 260.973 144.057 260.326 144.705C259.678 145.353 259.165 146.122 258.814 146.968C258.464 147.815 258.284 148.722 258.284 149.638C258.284 150.554 258.464 151.461 258.814 152.307C259.165 153.153 259.678 153.922 260.326 154.57C260.973 155.218 261.742 155.732 262.588 156.082C263.434 156.433 264.34 156.613 265.256 156.613Z" fill="#CCCCCC"/>
<path d="M265.256 231.596H572.905C573.821 231.596 574.727 231.416 575.573 231.065C576.419 230.715 577.188 230.201 577.835 229.553C578.483 228.906 578.996 228.137 579.347 227.29C579.697 226.444 579.877 225.537 579.877 224.621C579.877 223.705 579.697 222.798 579.347 221.951C578.996 221.105 578.483 220.336 577.835 219.688C577.188 219.041 576.419 218.527 575.573 218.176C574.727 217.826 573.821 217.645 572.905 217.645H265.256C264.34 217.645 263.434 217.826 262.588 218.176C261.742 218.527 260.973 219.041 260.326 219.688C259.678 220.336 259.165 221.105 258.814 221.951C258.464 222.798 258.284 223.705 258.284 224.621C258.284 225.537 258.464 226.444 258.814 227.29C259.165 228.137 259.678 228.906 260.326 229.553C260.973 230.201 261.742 230.715 262.588 231.065C263.434 231.416 264.34 231.596 265.256 231.596Z" fill="#E6E6E6"/>
<path d="M265.256 260.369H572.905C574.754 260.369 576.528 259.634 577.835 258.326C579.143 257.018 579.877 255.244 579.877 253.393C579.877 251.543 579.143 249.769 577.835 248.461C576.528 247.153 574.754 246.418 572.905 246.418H265.256C263.407 246.418 261.633 247.153 260.326 248.461C259.018 249.769 258.284 251.543 258.284 253.393C258.284 255.244 259.018 257.018 260.326 258.326C261.633 259.634 263.407 260.369 265.256 260.369Z" fill="#E6E6E6"/>
<path d="M315.369 126.969H522.792C524.641 126.969 526.415 126.234 527.722 124.926C529.03 123.617 529.764 121.843 529.764 119.993C529.764 118.143 529.03 116.369 527.722 115.061C526.415 113.752 524.641 113.017 522.792 113.017H315.369C313.519 113.017 311.746 113.752 310.438 115.061C309.131 116.369 308.396 118.143 308.396 119.993C308.396 121.843 309.131 123.617 310.438 124.926C311.746 126.234 313.519 126.969 315.369 126.969Z" fill="#CCCCCC"/>
<path d="M464.444 202.824H572.514C573.43 202.825 574.338 202.645 575.185 202.295C576.031 201.945 576.801 201.432 577.449 200.784C578.098 200.136 578.612 199.366 578.963 198.52C579.314 197.673 579.495 196.765 579.495 195.848C579.495 194.931 579.314 194.024 578.963 193.177C578.612 192.33 578.098 191.561 577.449 190.913C576.801 190.265 576.031 189.751 575.185 189.401C574.338 189.051 573.43 188.872 572.514 188.873H464.444C462.595 188.873 460.822 189.608 459.514 190.916C458.207 192.224 457.472 193.998 457.472 195.848C457.472 197.698 458.207 199.473 459.514 200.781C460.822 202.089 462.595 202.824 464.444 202.824Z" fill="#E6E6E6"/>
<path d="M264.865 202.824H372.934C373.85 202.825 374.758 202.645 375.605 202.295C376.452 201.945 377.221 201.432 377.87 200.784C378.518 200.136 379.032 199.366 379.383 198.52C379.734 197.673 379.915 196.765 379.915 195.848C379.915 194.931 379.734 194.024 379.383 193.177C379.032 192.33 378.518 191.561 377.87 190.913C377.221 190.265 376.452 189.751 375.605 189.401C374.758 189.051 373.85 188.872 372.934 188.873H264.865C263.948 188.872 263.041 189.051 262.194 189.401C261.347 189.751 260.577 190.265 259.929 190.913C259.281 191.561 258.766 192.33 258.416 193.177C258.065 194.024 257.884 194.931 257.884 195.848C257.884 196.765 258.065 197.673 258.416 198.52C258.766 199.366 259.281 200.136 259.929 200.784C260.577 201.432 261.347 201.945 262.194 202.295C263.041 202.645 263.948 202.825 264.865 202.824Z" fill="#E6E6E6"/>
<path d="M154.381 -1.52588e-05H683.404C685.419 0.00305222 687.351 0.806074 688.775 2.23276C690.199 3.65944 691 5.5932 691 7.60952V366.238C690.997 368.252 690.196 370.184 688.772 371.608C687.348 373.033 685.417 373.835 683.404 373.837H287.806C287.906 373.117 287.986 372.387 288.066 371.667H683.404C684.843 371.666 686.222 371.093 687.24 370.076C688.258 369.058 688.83 367.677 688.831 366.238V7.60952C688.83 6.16882 688.258 4.78726 687.241 3.76761C686.224 2.74796 684.844 2.17339 683.404 2.16985H154.381C152.939 2.17136 151.557 2.74494 150.538 3.76475C149.518 4.78456 148.945 6.1673 148.944 7.60952V227.406C148.224 227.456 147.494 227.516 146.774 227.586V7.60952C146.775 5.5916 147.577 3.65662 149.003 2.22977C150.43 0.802914 152.364 0.000912099 154.381 -1.52588e-05Z" fill="#3F3D56"/>
<path d="M287.806 373.837C287.906 373.117 287.986 372.387 288.066 371.667C288.086 371.557 288.096 371.457 288.106 371.347C288.396 368.717 288.606 366.061 288.735 363.378C289.285 365.688 289.781 368.007 290.224 370.337C290.195 370.677 290.164 371.007 290.125 371.347C290.115 371.457 290.105 371.557 290.085 371.667C290.005 372.387 289.925 373.117 289.825 373.837C289.545 376.067 289.205 378.267 288.805 380.457C288.796 380.367 288.785 380.287 288.776 380.197C288.495 378.087 288.176 375.987 287.796 373.887C287.804 373.872 287.807 373.854 287.806 373.837ZM146.774 225.576C147.494 225.506 148.224 225.446 148.944 225.396C149.053 225.386 149.154 225.386 149.263 225.376C152.462 225.136 155.7 225.016 158.959 225.016C177.407 225.022 195.649 228.897 212.508 236.391C229.367 243.885 244.468 254.832 256.837 268.526C269.206 282.219 278.568 298.354 284.318 315.891C290.069 333.427 292.081 351.975 290.224 370.337C290.195 370.677 290.164 371.007 290.125 371.347C290.115 371.457 290.105 371.557 290.085 371.667C290.005 372.387 289.925 373.117 289.825 373.837C289.545 376.067 289.205 378.267 288.805 380.457C284.834 402.167 275.507 422.542 261.671 439.733C247.835 456.924 229.928 470.387 209.574 478.901C207.495 479.761 205.396 480.581 203.267 481.33C201.868 481.84 200.468 482.31 199.049 482.76C198.03 483.09 197 483.4 195.971 483.7C194.511 484.13 193.032 484.54 191.543 484.92C173.274 489.609 154.209 490.305 135.647 486.961C117.085 483.617 99.4615 476.312 83.9753 465.541H83.965C66.4034 453.411 52.047 437.197 42.1289 418.293C32.2107 399.388 27.027 378.358 27.023 357.008C27.0229 288.332 79.717 231.746 146.774 225.576ZM84.8347 463.712C90.9419 467.978 97.4062 471.708 104.155 474.861C109.005 477.131 113.992 479.095 119.088 480.741C142.082 488.143 166.681 488.998 190.134 483.21C191.892 482.78 193.638 482.31 195.371 481.8C197.08 481.3 198.772 480.77 200.448 480.211C201.818 479.741 203.187 479.261 204.546 478.751C205.966 478.211 207.365 477.651 208.764 477.071C229.812 468.296 248.188 454.148 262.057 436.04C275.926 417.933 284.802 396.501 287.796 373.887C287.804 373.872 287.807 373.854 287.806 373.837C287.906 373.117 287.986 372.387 288.066 371.667C288.086 371.557 288.096 371.457 288.106 371.347C288.396 368.717 288.606 366.061 288.735 363.378C288.845 361.268 288.899 359.145 288.895 357.008C288.858 322.544 275.156 289.502 250.796 265.131C226.437 240.761 193.408 227.054 158.959 227.016C155.7 227.016 152.462 227.136 149.263 227.376C149.153 227.386 149.053 227.396 148.944 227.406C148.224 227.456 147.494 227.516 146.774 227.586C80.8165 233.746 29.0218 289.432 29.0218 357.008C29.0246 377.98 34.1026 398.64 43.822 417.221C53.5413 435.803 67.6131 451.754 84.8347 463.712ZM204.546 478.751C205.966 478.211 207.365 477.651 208.764 477.071C229.812 468.296 248.188 454.148 262.057 436.04C275.926 417.933 284.802 396.501 287.796 373.887C288.176 375.987 288.495 378.087 288.775 380.197C288.785 380.287 288.795 380.367 288.805 380.457C284.834 402.167 275.507 422.542 261.671 439.733C247.835 456.924 229.928 470.387 209.574 478.901C207.495 479.761 205.396 480.581 203.267 481.33C203.707 480.48 204.137 479.621 204.546 478.751ZM149.263 225.376C152.462 225.136 155.7 225.016 158.959 225.016C177.407 225.022 195.649 228.897 212.508 236.391C229.367 243.885 244.468 254.832 256.837 268.526C269.206 282.219 278.568 298.354 284.318 315.891C290.069 333.427 292.081 351.975 290.225 370.337C290.195 370.677 290.165 371.007 290.125 371.347C290.115 371.457 290.105 371.557 290.085 371.667H288.066C288.086 371.557 288.096 371.457 288.106 371.347C288.396 368.717 288.606 366.061 288.736 363.378C288.845 361.268 288.899 359.145 288.896 357.008C288.858 322.544 275.156 289.502 250.796 265.131C226.437 240.761 193.409 227.054 158.959 227.016C155.7 227.016 152.462 227.136 149.263 227.376C149.154 227.386 149.053 227.396 148.944 227.406V225.396C149.053 225.386 149.153 225.386 149.263 225.376H149.263Z" fill="#3F3D56"/>
<path d="M51.7162 258.801C11.1919 259.493 11.1982 319.798 51.7175 320.484C92.2405 319.792 92.2341 259.487 51.7162 258.801Z" fill="#6C63FF"/>
<path d="M51.7159 306.436C52.2903 306.435 52.8411 306.207 53.2472 305.8C53.6534 305.394 53.8819 304.843 53.8826 304.269V292.776C53.8828 292.52 53.9846 292.275 54.1656 292.093C54.3466 291.912 54.592 291.81 54.848 291.81H66.3353C66.91 291.81 67.4612 291.582 67.8676 291.175C68.2739 290.769 68.5022 290.217 68.5022 289.642C68.5022 289.067 68.2739 288.516 67.8676 288.109C67.4612 287.703 66.91 287.475 66.3353 287.475H54.848C54.5921 287.474 54.3467 287.373 54.1657 287.192C53.9847 287.01 53.8828 286.765 53.8826 286.509V275.016C53.8826 274.441 53.6543 273.89 53.248 273.484C52.8417 273.077 52.2907 272.849 51.7161 272.849C51.1415 272.849 50.5905 273.077 50.1842 273.484C49.7779 273.89 49.5497 274.441 49.5497 275.016V286.509C49.5494 286.765 49.4476 287.01 49.2666 287.192C49.0856 287.373 48.8402 287.474 48.5842 287.475H37.0969C36.5222 287.475 35.9711 287.703 35.5647 288.109C35.1583 288.516 34.93 289.067 34.93 289.642C34.93 290.217 35.1583 290.769 35.5647 291.175C35.9711 291.582 36.5222 291.81 37.0969 291.81H48.5842C48.8402 291.81 49.0856 291.912 49.2666 292.093C49.4476 292.275 49.5494 292.52 49.5497 292.776V304.269C49.5504 304.843 49.7788 305.394 50.1849 305.8C50.591 306.207 51.1416 306.435 51.7159 306.436Z" fill="white"/>
</g>
<defs>
<clipPath id="clip0">
<rect width="691" height="489" fill="white" transform="matrix(-1 0 0 1 691 0)"/>
</clipPath>
</defs>
</svg>
